<?xml version="1.0" encoding="utf-8"?>
<!-- Generator: Adobe Illustrator 20.0.0, SVG Export Plug-In . SVG Version: 6.00 Build 0)  -->
<svg version="1.1" id="Layer_1" xmlns="http://www.w3.org/2000/svg" xmlns:xlink="http://www.w3.org/1999/xlink" x="0px" y="0px"
	 viewBox="0 0 21 21" style="enable-background:new 0 0 21 21;" xml:space="preserve">
<g>
	<path d="M0.8,2.7l17.3,17.3c0.5,0.5,1.4,0.5,1.9,0c0.5-0.5,0.5-1.4,0-1.9L2.8,0.8c-0.5-0.5-1.4-0.5-1.9,0C0.3,1.3,0.3,2.2,0.8,2.7
		L0.8,2.7z M0.8,2.7"/>
	<path d="M20.2,2.7c0.5-0.5,0.5-1.4,0-1.9c-0.5-0.5-1.4-0.5-1.9,0L0.8,18.1c-0.5,0.5-0.5,1.4,0,1.9c0.5,0.5,1.4,0.6,1.9,0L20.2,2.7
		L20.2,2.7z M20.2,2.7"/>
</g>
</svg>
