<?xml version="1.0" encoding="utf-8"?>
<!-- Generator: Adobe Illustrator 20.0.0, SVG Export Plug-In . SVG Version: 6.00 Build 0)  -->
<svg version="1.1" id="Layer_1" xmlns="http://www.w3.org/2000/svg" xmlns:xlink="http://www.w3.org/1999/xlink" x="0px" y="0px"
	 viewBox="0 0 25 18" style="enable-background:new 0 0 25 18;" xml:space="preserve">
<style type="text/css">
	.st0{clip-path:url(#SVGID_2_);}
</style>
<g>
	<g>
		<defs>
			<rect id="SVGID_1_" x="0" y="0.1" width="25" height="18.9"/>
		</defs>
		<clipPath id="SVGID_2_">
			<use xlink:href="#SVGID_1_"  style="overflow:visible;"/>
		</clipPath>
		<path class="st0" d="M1.3,2.7h22.3c0.7,0,1.2-0.6,1.2-1.3c0-0.7-0.6-1.3-1.2-1.3H1.3c-0.7,0-1.2,0.6-1.2,1.3
			C0.1,2.1,0.7,2.7,1.3,2.7L1.3,2.7z M1.3,2.7"/>
		<path class="st0" d="M1.3,10.3h22.3c0.7,0,1.2-0.6,1.2-1.3c0-0.7-0.6-1.3-1.2-1.3H1.3C0.7,7.8,0.1,8.3,0.1,9
			C0.1,9.7,0.7,10.3,1.3,10.3L1.3,10.3z M1.3,10.3"/>
		<path class="st0" d="M1.3,17.9h22.3c0.7,0,1.2-0.6,1.2-1.3c0-0.7-0.6-1.3-1.2-1.3H1.3c-0.7,0-1.2,0.6-1.2,1.3
			C0.1,17.3,0.7,17.9,1.3,17.9L1.3,17.9z M1.3,17.9"/>
	</g>
</g>
</svg>
